# xmcd CD database file
#
# Track frame offsets:
#	150
#	21968
#	42819
#	67978
#
# Disc length: 1196 seconds
#
# Revision: 0
# Processed by: cddbd v1.5.1PL2 Copyright (c) Steve Scherf et al.
# Submitted via: CDex 1.51
#
DISCID=2a04aa04
DTITLE=玉置成実 - Prayer
DYEAR=1900
DGENRE=J-Pop
TTITLE0=Prayer
TTITLE1=real dreaM
TTITLE2=NEVER STOP MY HEART-君という奇蹟に-
TTITLE3=Prayer(instrumental)
EXTD=
EXTT0=
EXTT1=
EXTT2=
EXTT3=
PLAYORDER=
